<svg xmlns="http://www.w3.org/2000/svg" width="26.46" height="27" viewBox="0 0 26.46 27"><defs><style>.a{fill:#4285f4;}.b{fill:#34a853;}.c{fill:#fbbc05;}.d{fill:#eb4335;}</style></defs><path class="a" d="M143.51,109.521a11.568,11.568,0,0,0-.285-2.76H130.55v5.01h7.44a6.6,6.6,0,0,1-2.76,4.38l-.025.168,4.008,3.1.278.028a13.2,13.2,0,0,0,4.02-9.93" transform="translate(-117.05 -95.721)"/><path class="b" d="M25.985,167.2a12.867,12.867,0,0,0,8.94-3.27l-4.26-3.3a7.99,7.99,0,0,1-4.68,1.35,8.127,8.127,0,0,1-7.68-5.61l-.158.013-4.167,3.225-.054.151a13.49,13.49,0,0,0,12.06,7.44" transform="translate(-12.485 -140.2)"/><path class="c" d="M5.82,80.108a8.311,8.311,0,0,1-.45-2.67,8.733,8.733,0,0,1,.435-2.67L5.8,74.589,1.578,71.312l-.138.066a13.472,13.472,0,0,0,0,12.12l4.38-3.39" transform="translate(0 -63.938)"/><path class="d" d="M25.985,5.22A7.482,7.482,0,0,1,31.2,7.23l3.81-3.72A12.971,12.971,0,0,0,25.985,0a13.49,13.49,0,0,0-12.06,7.44l4.365,3.39a8.16,8.16,0,0,1,7.7-5.61" transform="translate(-12.485)"/></svg>